<?xml version="1.0" encoding="UTF-8" standalone="no"?>
<!-- Generator: Adobe Illustrator 18.0.0, SVG Export Plug-In . SVG Version: 6.00 Build 0)  -->

<svg
   version="1.1"
   id="Capa_1"
   x="0px"
   y="0px"
   viewBox="0 0 297 297"
   style="enable-background:new 0 0 297 297;"
   xml:space="preserve"
   sodipodi:docname="heart-svgrepo-com.svg"
   inkscape:version="1.2 (dc2aedaf03, 2022-05-15)"
   xmlns:inkscape="http://www.inkscape.org/namespaces/inkscape"
   xmlns:sodipodi="http://sodipodi.sourceforge.net/DTD/sodipodi-0.dtd"
   xmlns="http://www.w3.org/2000/svg"
   xmlns:svg="http://www.w3.org/2000/svg"><defs
   id="defs39" /><sodipodi:namedview
   id="namedview37"
   pagecolor="#ffffff"
   bordercolor="#000000"
   borderopacity="0.25"
   inkscape:showpageshadow="2"
   inkscape:pageopacity="0.0"
   inkscape:pagecheckerboard="0"
   inkscape:deskcolor="#d1d1d1"
   showgrid="false"
   inkscape:zoom="2.7912458"
   inkscape:cx="113.39023"
   inkscape:cy="148.32087"
   inkscape:window-width="1920"
   inkscape:window-height="1009"
   inkscape:window-x="1912"
   inkscape:window-y="-8"
   inkscape:window-maximized="1"
   inkscape:current-layer="g4" />
<g
   id="g4">
	<path
   d="M148.5,273.96c-1.572,0-3.145-0.36-4.589-1.083c-1.455-0.728-36.028-18.149-71.1-47.375   c-20.824-17.353-37.475-35.289-49.488-53.31C7.847,148.979,0,125.504,0,102.421C0,58.65,35.61,23.04,79.381,23.04   c29.604,0,55.474,16.286,69.119,40.372c13.645-24.086,39.516-40.372,69.119-40.372c43.77,0,79.381,35.61,79.381,79.381   c0,23.083-7.847,46.558-23.323,69.771c-12.014,18.021-28.664,35.957-49.488,53.311c-35.071,29.226-69.645,46.647-71.1,47.374   C151.645,273.6,150.072,273.96,148.5,273.96z M79.381,43.564c-32.453,0-58.856,26.403-58.856,58.856   c0,75.731,104.584,136.931,127.972,149.665c23.379-12.75,127.979-74.044,127.979-149.665c0-32.453-26.403-58.856-58.856-58.856   c-32.454,0-58.856,26.403-58.856,58.856c0,5.667-4.596,10.263-10.263,10.263s-10.263-4.596-10.263-10.263   C138.237,69.968,111.835,43.564,79.381,43.564z"
   id="path2"
   style="fill:#9e9e9e;fill-opacity:1" />
</g>
<g
   id="g6">
</g>
<g
   id="g8">
</g>
<g
   id="g10">
</g>
<g
   id="g12">
</g>
<g
   id="g14">
</g>
<g
   id="g16">
</g>
<g
   id="g18">
</g>
<g
   id="g20">
</g>
<g
   id="g22">
</g>
<g
   id="g24">
</g>
<g
   id="g26">
</g>
<g
   id="g28">
</g>
<g
   id="g30">
</g>
<g
   id="g32">
</g>
<g
   id="g34">
</g>
</svg>
