<?xml version="1.0" encoding="UTF-8" standalone="no"?>
<!-- Generator: Adobe Illustrator 19.0.0, SVG Export Plug-In . SVG Version: 6.00 Build 0)  -->

<svg
   version="1.1"
   id="Layer_1"
   x="0px"
   y="0px"
   viewBox="0 0 512 512"
   style="enable-background:new 0 0 512 512;"
   xml:space="preserve"
   sodipodi:docname="loupe.svg"
   inkscape:version="1.2 (dc2aedaf03, 2022-05-15)"
   xmlns:inkscape="http://www.inkscape.org/namespaces/inkscape"
   xmlns:sodipodi="http://sodipodi.sourceforge.net/DTD/sodipodi-0.dtd"
   xmlns="http://www.w3.org/2000/svg"
   xmlns:svg="http://www.w3.org/2000/svg"><defs
   id="defs11463" /><sodipodi:namedview
   id="namedview11461"
   pagecolor="#ffffff"
   bordercolor="#000000"
   borderopacity="0.25"
   inkscape:showpageshadow="2"
   inkscape:pageopacity="0.0"
   inkscape:pagecheckerboard="0"
   inkscape:deskcolor="#d1d1d1"
   showgrid="false"
   inkscape:zoom="1.6191406"
   inkscape:cx="220.17853"
   inkscape:cy="256.30881"
   inkscape:window-width="1920"
   inkscape:window-height="1009"
   inkscape:window-x="1912"
   inkscape:window-y="-8"
   inkscape:window-maximized="1"
   inkscape:current-layer="g11426" />
<g
   id="g11428">
	<g
   id="g11426">
		<path
   d="M508.255,490.146l-128-128c-0.06-0.06-0.137-0.077-0.196-0.128c34.193-38.434,55.142-88.917,55.142-144.418    c0-120.175-97.425-217.6-217.6-217.6S0.001,97.425,0.001,217.6s97.425,217.6,217.6,217.6c55.501,0,105.975-20.949,144.418-55.151    c0.06,0.06,0.077,0.137,0.128,0.196l128,128c2.5,2.509,5.777,3.755,9.054,3.755s6.554-1.246,9.054-3.746    C513.247,503.253,513.247,495.147,508.255,490.146z M217.601,409.6c-105.865,0-192-86.135-192-192s86.135-192,192-192    s192,86.135,192,192S323.466,409.6,217.601,409.6z"
   id="path11424"
   style="fill:#afafaf;fill-opacity:1" />
	</g>
</g>
<g
   id="g11430">
</g>
<g
   id="g11432">
</g>
<g
   id="g11434">
</g>
<g
   id="g11436">
</g>
<g
   id="g11438">
</g>
<g
   id="g11440">
</g>
<g
   id="g11442">
</g>
<g
   id="g11444">
</g>
<g
   id="g11446">
</g>
<g
   id="g11448">
</g>
<g
   id="g11450">
</g>
<g
   id="g11452">
</g>
<g
   id="g11454">
</g>
<g
   id="g11456">
</g>
<g
   id="g11458">
</g>
</svg>
