<?xml version="1.0" encoding="UTF-8" standalone="no"?>
<svg
   width="24px"
   height="24px"
   viewBox="0 0 24 24"
   id="call"
   version="1.1"
   sodipodi:docname="call.svg"
   inkscape:version="1.2 (dc2aedaf03, 2022-05-15)"
   xmlns:inkscape="http://www.inkscape.org/namespaces/inkscape"
   xmlns:sodipodi="http://sodipodi.sourceforge.net/DTD/sodipodi-0.dtd"
   xmlns="http://www.w3.org/2000/svg"
   xmlns:svg="http://www.w3.org/2000/svg">
  <defs
     id="defs7" />
  <sodipodi:namedview
     id="namedview5"
     pagecolor="#ffffff"
     bordercolor="#000000"
     borderopacity="0.25"
     inkscape:showpageshadow="2"
     inkscape:pageopacity="0.0"
     inkscape:pagecheckerboard="0"
     inkscape:deskcolor="#d1d1d1"
     showgrid="false"
     inkscape:zoom="34.541667"
     inkscape:cx="7.5126658"
     inkscape:cy="12.014475"
     inkscape:window-width="1920"
     inkscape:window-height="1009"
     inkscape:window-x="1912"
     inkscape:window-y="-8"
     inkscape:window-maximized="1"
     inkscape:current-layer="call" />
  <rect
     id="Rectangle_4"
     data-name="Rectangle 4"
     width="24"
     height="24"
     fill="none" />
  <path
     id="Shape"
     d="M7.02,15.976,5.746,13.381a.7.7,0,0,0-.579-.407l-1.032-.056a.662.662,0,0,1-.579-.437,9.327,9.327,0,0,1,0-6.5.662.662,0,0,1,.579-.437l1.032-.109a.7.7,0,0,0,.589-.394L7.03,2.446l.331-.662a.708.708,0,0,0,.07-.308.692.692,0,0,0-.179-.467A3,3,0,0,0,4.693.017l-.235.03L4.336.063A1.556,1.556,0,0,0,4.17.089l-.162.04C1.857.679.165,4.207,0,8.585V9.83c.165,4.372,1.857,7.9,4,8.483l.162.04a1.556,1.556,0,0,0,.165.026l.122.017.235.03a3,3,0,0,0,2.558-.993.692.692,0,0,0,.179-.467.708.708,0,0,0-.07-.308Z"
     transform="translate(3.887 6.093) rotate(-30)"
     fill="none"
     stroke="#000"
     stroke-miterlimit="10"
     stroke-width="1.5"
     style="stroke:#f8f8f8;stroke-opacity:1" />
</svg>
